<?xml version='1.0' encoding='utf-8'?>
<svg xmlns="http://www.w3.org/2000/svg" id="Layer_1" width="165.7" height="165.7" viewBox="0 0 165.7 165.7">
  <defs>
    <clipPath id="clippath">
      <path d="M79.16,93.8l-19.2,20.4c-8.4,8.6-13.3,20.1-13.7,32.2v1.8c0,4.4.6,8.7,1.7,12.9l1.4,4.4,40.5-41.2c10.5-10.5,10.5-27.6,0-38.2l-5-5-2.1-2.3c1.2,5.4-.1,10.9-3.6,15h0Z" style="fill: none;" />
    </clipPath>
    <linearGradient id="linear-gradient" x1="38.04" y1="-1.62" x2="92.65" y2="70.31" gradientTransform="translate(0 166) scale(1 -1)" gradientUnits="userSpaceOnUse">
      <stop offset="0" stop-color="#1e1b58" stop-opacity="0" />
      <stop offset=".17" stop-color="#1e1b58" stop-opacity=".05" />
      <stop offset=".37" stop-color="#1e1b58" stop-opacity=".18" />
      <stop offset=".59" stop-color="#1e1b58" stop-opacity=".41" />
      <stop offset=".83" stop-color="#1e1b58" stop-opacity=".72" />
      <stop offset="1" stop-color="#1e1b58" />
    </linearGradient>
    <clipPath id="clippath-1">
      <path d="M47.98,4.3c-1.9,8.8-1.5,18,1,26.6,3.4,11.8,13,22.7,13,22.7l40,40.2c4.1,4.1,5.8,9.9,4.7,15.5l1.8-2,5.1-5.1c4.4-4.4,7.2-10.3,7.8-16.5.1-.8.1-1.7.1-2.5v-.2c0-7.1-2.9-14-7.9-19L48.78,0l-.8,4.3h0Z" style="fill: none;" />
    </clipPath>
    <linearGradient id="linear-gradient-2" x1="110.74" y1="79.54" x2="55.34" y2="143.27" gradientTransform="translate(0 166) scale(1 -1)" gradientUnits="userSpaceOnUse">
      <stop offset="0" stop-color="#1e1b58" stop-opacity="0" />
      <stop offset=".17" stop-color="#1e1b58" stop-opacity=".05" />
      <stop offset=".37" stop-color="#1e1b58" stop-opacity=".18" />
      <stop offset=".59" stop-color="#1e1b58" stop-opacity=".41" />
      <stop offset=".83" stop-color="#1e1b58" stop-opacity=".72" />
      <stop offset="1" stop-color="#1e1b58" />
    </linearGradient>
    <linearGradient id="blue-gradient" x1="0" y1="0" x2="1" y2="1" gradientUnits="objectBoundingBox">
      <stop offset="0" stop-color="#1e1b58" />
      <stop offset="0.5" stop-color="#2f2b7c" />
      <stop offset="1" stop-color="#4742a6" />
    </linearGradient>
  </defs>
  <path d="M79.34,93.8l-19.2,20.4c-8.4,8.6-13.3,20.1-13.7,32.2v1.8c0,4.4.6,8.7,1.7,12.9l1.4,4.4,40.5-41.2c10.6-10.5,10.6-27.6,0-38.2l-5-5-2.1-2.3c1.19,5.29-.14,10.83-3.6,15" style="fill: url(#blue-gradient);" />
  <path d="M48.34,4.3c-1.9,8.8-1.5,18,1,26.6,3.4,11.8,13,22.7,13,22.7l40,40.2c4.1,4.1,5.8,9.9,4.7,15.5l1.8-2,5.1-5c4.4-4.4,7.2-10.3,7.8-16.5.1-.8.1-1.7.1-2.5v-.2c0-7.1-2.9-14-7.9-19L49.14,0l-.8,4.3h0Z" style="fill: url(#blue-gradient);" />
  <g style="clip-path: url(#clippath);">
    <path d="M4.56,134l60.8-80.1,74.9,56.8-60.9,80.1L4.56,134Z" style="fill: url(#linear-gradient);" />
  </g>
  <g style="clip-path: url(#clippath-1);">
    <path d="M-9.42,47.1L88.48-38l87.2,100.3-97.9,85.1L-9.42,47.1Z" style="fill: url(#linear-gradient-2);" />
  </g>
</svg>